<?xml version="1.0" encoding="UTF-8"?>
<svg version="1.1" viewBox="0 0 2048 933" width="305" height="139" xmlns="http://www.w3.org/2000/svg">
<path transform="translate(1488,17)" d="m0 0h527l2 1 1 423-4 2h-69l-298 1-5 3-132 132-8 7-8 5-5 1-2-2-1-16-1-137-1-65v-44l1-93 1-204 1-13z" fill="#3D90FE"/>
<path transform="translate(1488,17)" d="m0 0h527l2 1 1 423-4 2h-69l-298 1-5 3-132 132-8 7-8 5-5 1-2-2-1-16-1-137-1-65v-44l1-93 1-204 1-13zm168 51-115 1-1 1v320l167 1h61l198-1v-322z" fill="#FDFDFE"/>
<path transform="translate(1121,396)" d="m0 0h51l6 7 14 23 17 28 19 32 14 23 12 20h4l13-22 16-26 17-28 17-29 13-21 6-7h51l1 1v178l-1 1-40 1-2-4-1-117h-2l-2 6-10 17-17 28-13 22-11 18-13 20-6 8-1 1-18 1h-13l-5-3-16-24-13-21-19-32-13-21-11-18-2-2v119l-1 1-38 1-4-2-1-14v-156l1-8z" fill="#FEFEFE"/>
<path transform="translate(336,396)" d="m0 0h162l12 2 10 5 8 7 6 10 2 7 1 9v98l-2 15-6 12-9 9-13 5-8 1-32 1h-119l-21-2-12-6-8-8-6-12-3-12v-101l2-11 6-12 4-5 13-9 5-2zm23 36-11 2-4 5-2 6-1 26v47l2 13 3 5 5 3 4 1h127l7-3 3-4 2-11v-68l-1-12-3-6-4-3-7-1z" fill="#FEFEFE"/>
<path transform="translate(592,396)" d="m0 0h170l12 2 9 6 6 7 4 9 2 13v45l-3 14-6 10-7 6-10 4-14 2h-19l-4-1 17 17 8 7 13 12 18 18 4 8-2 1-43 1-6-3-12-11-13-12-7-7-8-7-12-12-8-7-6-4h-41v61l-1 1-40 1-2-3-1-72v-68l1-37zm42 33v51h62l47-1 6-4 2-5 1-16-1-14-3-8-2-2-6-1z" fill="#FDFDFE"/>
<path transform="translate(841,396)" d="m0 0h38l5 1 1 125 2 9 4 4 10 2h105l8-2 5-5 1-3 1-103 1-28h42l1 2v134l-1 12-5 13-8 10-7 5-9 3-8 1-99 1h-37l-16-1-9-2-10-6-8-9-5-10-2-9-1-18v-113z" fill="#FEFEFE"/>
<path transform="translate(78,396)" d="m0 0h188l1 1v34l-2 1h-145v46h113l2 1v28l-1 6-2 1h-112v62h-42l-1-1-1-12v-148l1-18z" fill="#FEFEFE"/>
<path transform="translate(1228,708)" d="m0 0h101l34 1v20l-1 1-77 1-1 153h79v20l-4 1h-180l-1-4v-14l1-3h79v-151l1-2-80-1v-21z" fill="#FEFEFE"/>
<path transform="translate(1641,130)" d="m0 0 5 2 91 91-2 5-7 7-8 7-13 13-7 8-49 49h-2l-2 4-5 4-8-6-16-15-12-12-1-4 7-8 15-15 7-8 25-25 2-1-2-4-52-52-2-3 1-4 10-10 8-7 14-14z" fill="#FEFEFE"/>
<path transform="translate(935,708)" d="m0 0h141l39 1 1 1v21l-1 1-39 1h-64v172h-24l-1-3v-169h-96l-8-1-1-2v-13l1-8z" fill="#FEFEFE"/>
<path transform="translate(1750,278)" d="m0 0h145l5 1 1 2 1 19v28l-3 3h-148l-2-2v-50z" fill="#FEFEFE"/>
</svg>
